<svg width="24" height="24" viewBox="0 0 24 24" fill="none" xmlns="http://www.w3.org/2000/svg">
<circle cx="12" cy="12" r="12" fill="#FFC737"/>
<path d="M10.9062 15.4375V15.6094H12.9688V15.4375C12.9766 14.3438 13.3672 13.8359 14.25 13.3125C15.2734 12.6953 15.9375 11.8828 15.9375 10.5938C15.9375 8.66406 14.3984 7.53125 12.2188 7.53125C10.2188 7.53125 8.58594 8.58594 8.54688 10.7812H10.7656C10.7969 9.86719 11.4766 9.38281 12.2031 9.375C12.9609 9.38281 13.5703 9.89062 13.5625 10.6719C13.5703 11.3906 13.0469 11.875 12.375 12.3125C11.4375 12.8984 10.9141 13.4922 10.9062 15.4375ZM10.6719 17.8281C10.6562 18.5547 11.25 19.1406 11.9844 19.1406C12.6797 19.1406 13.2812 18.5547 13.2812 17.8281C13.2812 17.1094 12.6797 16.5234 11.9844 16.5312C11.25 16.5234 10.6562 17.1094 10.6719 17.8281Z" fill="white"/>
</svg>
